# xmcd CD database file
#
# Track frame offsets:
#	150
#	19115
#	38825
#	46180
#	61725
#	86060
#	97235
#	117240
#	131347
#	139647
#	154182
#	169834
#	181237
#	208230
#
# Disc length: 2977 seconds
#
# Revision: 0
# Processed by: cddbd v1.5PL3 Copyright (c) Steve Scherf et al.
# Submitted via: CDex 1.51
#
DISCID=bc0b9f0e
DTITLE=Ray Riendeau - Arrhythmia
DYEAR=2002
DGENRE=Jazz
TTITLE0=Arrhythmia
TTITLE1=Kundalini
TTITLE2=Momentum
TTITLE3=Right View
TTITLE4=Bodhi Tree
TTITLE5=What Is Rhythm?
TTITLE6=Decon Recon
TTITLE7=Right Speech
TTITLE8=Chant
TTITLE9=Sunyata
TTITLE10=Hidden Channels of the Mind
TTITLE11=Mental Landscape
TTITLE12=Ornithology
TTITLE13=911
EXTD=YEAR: 2002
EXTT0=
EXTT1=
EXTT2=
EXTT3=
EXTT4=
EXTT5=
EXTT6=
EXTT7=
EXTT8=
EXTT9=
EXTT10=
EXTT11=
EXTT12=
EXTT13=
PLAYORDER=
